<mxfile host="Electron" agent="Mozilla/5.0 (Windows NT 10.0; Win64; x64) AppleWebKit/537.36 (KHTML, like Gecko) draw.io/24.7.17 Chrome/128.0.6613.36 Electron/32.0.1 Safari/537.36" version="24.7.17">
  <diagram name="Page-1" id="rZXAK-LVOmlyO_TUPFwU">
    <mxGraphModel dx="1050" dy="621" grid="1" gridSize="10" guides="1" tooltips="1" connect="1" arrows="1" fold="1" page="1" pageScale="1" pageWidth="850" pageHeight="1100" math="0" shadow="0">
      <root>
        <mxCell id="0" />
        <mxCell id="1" parent="0" />
        <mxCell id="4OGUl7-qcucQh-Lw1urA-1" value="LÃ©gkondi" style="rounded=1;whiteSpace=wrap;html=1;" parent="1" vertex="1">
          <mxGeometry x="346" y="550" width="120" height="60" as="geometry" />
        </mxCell>
        <mxCell id="4OGUl7-qcucQh-Lw1urA-3" value="PC2" style="whiteSpace=wrap;html=1;aspect=fixed;" parent="1" vertex="1">
          <mxGeometry x="28" y="300" width="50" height="50" as="geometry" />
        </mxCell>
        <mxCell id="4OGUl7-qcucQh-Lw1urA-9" value="PC16" style="whiteSpace=wrap;html=1;aspect=fixed;" parent="1" vertex="1">
          <mxGeometry x="368" y="440" width="50" height="50" as="geometry" />
        </mxCell>
        <mxCell id="4OGUl7-qcucQh-Lw1urA-10" value="PC6" style="whiteSpace=wrap;html=1;aspect=fixed;" parent="1" vertex="1">
          <mxGeometry x="368" y="300" width="50" height="50" as="geometry" />
        </mxCell>
        <mxCell id="4OGUl7-qcucQh-Lw1urA-11" value="PC15" style="whiteSpace=wrap;html=1;aspect=fixed;" parent="1" vertex="1">
          <mxGeometry x="293" y="440" width="50" height="50" as="geometry" />
        </mxCell>
        <mxCell id="4OGUl7-qcucQh-Lw1urA-12" value="PC5" style="whiteSpace=wrap;html=1;aspect=fixed;" parent="1" vertex="1">
          <mxGeometry x="293" y="300" width="50" height="50" as="geometry" />
        </mxCell>
        <mxCell id="4OGUl7-qcucQh-Lw1urA-13" value="PC14" style="whiteSpace=wrap;html=1;aspect=fixed;" parent="1" vertex="1">
          <mxGeometry x="220" y="440" width="50" height="50" as="geometry" />
        </mxCell>
        <mxCell id="4OGUl7-qcucQh-Lw1urA-14" value="PC4" style="whiteSpace=wrap;html=1;aspect=fixed;" parent="1" vertex="1">
          <mxGeometry x="220" y="300" width="50" height="50" as="geometry" />
        </mxCell>
        <mxCell id="4OGUl7-qcucQh-Lw1urA-15" value="PC3" style="whiteSpace=wrap;html=1;aspect=fixed;" parent="1" vertex="1">
          <mxGeometry x="108" y="300" width="50" height="50" as="geometry" />
        </mxCell>
        <mxCell id="4OGUl7-qcucQh-Lw1urA-16" value="PC13" style="whiteSpace=wrap;html=1;aspect=fixed;" parent="1" vertex="1">
          <mxGeometry x="115" y="440" width="50" height="50" as="geometry" />
        </mxCell>
        <mxCell id="4OGUl7-qcucQh-Lw1urA-17" value="PC12" style="whiteSpace=wrap;html=1;aspect=fixed;" parent="1" vertex="1">
          <mxGeometry x="28" y="440" width="50" height="50" as="geometry" />
        </mxCell>
        <mxCell id="4OGUl7-qcucQh-Lw1urA-18" value="PC11" style="whiteSpace=wrap;html=1;aspect=fixed;" parent="1" vertex="1">
          <mxGeometry x="790" y="300" width="50" height="50" as="geometry" />
        </mxCell>
        <mxCell id="4OGUl7-qcucQh-Lw1urA-25" value="PC20" style="whiteSpace=wrap;html=1;aspect=fixed;" parent="1" vertex="1">
          <mxGeometry x="710" y="440" width="50" height="50" as="geometry" />
        </mxCell>
        <mxCell id="4OGUl7-qcucQh-Lw1urA-26" value="PC10" style="whiteSpace=wrap;html=1;aspect=fixed;" parent="1" vertex="1">
          <mxGeometry x="710" y="300" width="50" height="50" as="geometry" />
        </mxCell>
        <mxCell id="4OGUl7-qcucQh-Lw1urA-27" value="PC19" style="whiteSpace=wrap;html=1;aspect=fixed;" parent="1" vertex="1">
          <mxGeometry x="628" y="440" width="50" height="50" as="geometry" />
        </mxCell>
        <mxCell id="4OGUl7-qcucQh-Lw1urA-28" value="PC9" style="whiteSpace=wrap;html=1;aspect=fixed;" parent="1" vertex="1">
          <mxGeometry x="628" y="300" width="50" height="50" as="geometry" />
        </mxCell>
        <mxCell id="4OGUl7-qcucQh-Lw1urA-29" value="PC18" style="whiteSpace=wrap;html=1;aspect=fixed;" parent="1" vertex="1">
          <mxGeometry x="548" y="440" width="50" height="50" as="geometry" />
        </mxCell>
        <mxCell id="4OGUl7-qcucQh-Lw1urA-30" value="PC8" style="whiteSpace=wrap;html=1;aspect=fixed;" parent="1" vertex="1">
          <mxGeometry x="548" y="300" width="50" height="50" as="geometry" />
        </mxCell>
        <mxCell id="4OGUl7-qcucQh-Lw1urA-31" value="PC7" style="whiteSpace=wrap;html=1;aspect=fixed;" parent="1" vertex="1">
          <mxGeometry x="448" y="300" width="50" height="50" as="geometry" />
        </mxCell>
        <mxCell id="4OGUl7-qcucQh-Lw1urA-32" value="PC17" style="whiteSpace=wrap;html=1;aspect=fixed;" parent="1" vertex="1">
          <mxGeometry x="448" y="440" width="50" height="50" as="geometry" />
        </mxCell>
        <mxCell id="4OGUl7-qcucQh-Lw1urA-44" value="" style="edgeStyle=orthogonalEdgeStyle;rounded=0;orthogonalLoop=1;jettySize=auto;html=1;dashed=1;" parent="1" source="4OGUl7-qcucQh-Lw1urA-34" edge="1">
          <mxGeometry relative="1" as="geometry">
            <mxPoint x="510" y="180" as="targetPoint" />
            <Array as="points">
              <mxPoint x="509" y="180" />
            </Array>
          </mxGeometry>
        </mxCell>
        <mxCell id="4OGUl7-qcucQh-Lw1urA-34" value="Projektor" style="rounded=0;whiteSpace=wrap;html=1;" parent="1" vertex="1">
          <mxGeometry x="480" y="370" width="58" height="50" as="geometry" />
        </mxCell>
        <mxCell id="4OGUl7-qcucQh-Lw1urA-40" value="SW1" style="whiteSpace=wrap;html=1;aspect=fixed;" parent="1" vertex="1">
          <mxGeometry x="720" y="40" width="80" height="80" as="geometry" />
        </mxCell>
        <mxCell id="4OGUl7-qcucQh-Lw1urA-41" value="PC1" style="rounded=0;whiteSpace=wrap;html=1;" parent="1" vertex="1">
          <mxGeometry x="330" y="210" width="50" height="50" as="geometry" />
        </mxCell>
        <mxCell id="v2j3ebQpfwPw54tXddbb-7" value="R1" style="ellipse;whiteSpace=wrap;html=1;" parent="1" vertex="1">
          <mxGeometry x="100" y="40" width="80" height="60" as="geometry" />
        </mxCell>
        <mxCell id="v2j3ebQpfwPw54tXddbb-8" value="PC21" style="rounded=0;whiteSpace=wrap;html=1;" parent="1" vertex="1">
          <mxGeometry x="790" y="440" width="50" height="50" as="geometry" />
        </mxCell>
        <mxCell id="HCGs_4Ey4VlUpitF9Jwi-6" value="F0/1" style="text;html=1;align=center;verticalAlign=middle;resizable=0;points=[];autosize=1;strokeColor=none;fillColor=none;" vertex="1" parent="1">
          <mxGeometry x="28" y="410" width="50" height="30" as="geometry" />
        </mxCell>
        <mxCell id="HCGs_4Ey4VlUpitF9Jwi-7" value="F0/1" style="text;html=1;align=center;verticalAlign=middle;resizable=0;points=[];autosize=1;strokeColor=none;fillColor=none;" vertex="1" parent="1">
          <mxGeometry x="28" y="270" width="50" height="30" as="geometry" />
        </mxCell>
        <mxCell id="HCGs_4Ey4VlUpitF9Jwi-8" value="F0/1" style="text;html=1;align=center;verticalAlign=middle;resizable=0;points=[];autosize=1;strokeColor=none;fillColor=none;" vertex="1" parent="1">
          <mxGeometry x="220" y="410" width="50" height="30" as="geometry" />
        </mxCell>
        <mxCell id="HCGs_4Ey4VlUpitF9Jwi-9" value="F0/1" style="text;html=1;align=center;verticalAlign=middle;resizable=0;points=[];autosize=1;strokeColor=none;fillColor=none;" vertex="1" parent="1">
          <mxGeometry x="115" y="410" width="50" height="30" as="geometry" />
        </mxCell>
        <mxCell id="HCGs_4Ey4VlUpitF9Jwi-10" value="F01/" style="text;html=1;align=center;verticalAlign=middle;resizable=0;points=[];autosize=1;strokeColor=none;fillColor=none;" vertex="1" parent="1">
          <mxGeometry x="108" y="270" width="50" height="30" as="geometry" />
        </mxCell>
        <mxCell id="HCGs_4Ey4VlUpitF9Jwi-11" value="F0/2" style="text;html=1;align=center;verticalAlign=middle;resizable=0;points=[];autosize=1;strokeColor=none;fillColor=none;" vertex="1" parent="1">
          <mxGeometry x="28" y="220" width="50" height="30" as="geometry" />
        </mxCell>
        <mxCell id="HCGs_4Ey4VlUpitF9Jwi-12" value="F0/1" style="text;html=1;align=center;verticalAlign=middle;resizable=0;points=[];autosize=1;strokeColor=none;fillColor=none;" vertex="1" parent="1">
          <mxGeometry x="293" y="410" width="50" height="30" as="geometry" />
        </mxCell>
        <mxCell id="HCGs_4Ey4VlUpitF9Jwi-13" value="F0/1" style="text;html=1;align=center;verticalAlign=middle;resizable=0;points=[];autosize=1;strokeColor=none;fillColor=none;" vertex="1" parent="1">
          <mxGeometry x="710" y="270" width="50" height="30" as="geometry" />
        </mxCell>
        <mxCell id="HCGs_4Ey4VlUpitF9Jwi-14" value="F0/1" style="text;html=1;align=center;verticalAlign=middle;resizable=0;points=[];autosize=1;strokeColor=none;fillColor=none;" vertex="1" parent="1">
          <mxGeometry x="330" y="180" width="50" height="30" as="geometry" />
        </mxCell>
        <mxCell id="HCGs_4Ey4VlUpitF9Jwi-15" value="F0/1" style="text;html=1;align=center;verticalAlign=middle;resizable=0;points=[];autosize=1;strokeColor=none;fillColor=none;" vertex="1" parent="1">
          <mxGeometry x="628" y="270" width="50" height="30" as="geometry" />
        </mxCell>
        <mxCell id="HCGs_4Ey4VlUpitF9Jwi-16" value="F0/1" style="text;html=1;align=center;verticalAlign=middle;resizable=0;points=[];autosize=1;strokeColor=none;fillColor=none;" vertex="1" parent="1">
          <mxGeometry x="220" y="270" width="50" height="30" as="geometry" />
        </mxCell>
        <mxCell id="HCGs_4Ey4VlUpitF9Jwi-17" value="F0/1" style="text;html=1;align=center;verticalAlign=middle;resizable=0;points=[];autosize=1;strokeColor=none;fillColor=none;" vertex="1" parent="1">
          <mxGeometry x="548" y="270" width="50" height="30" as="geometry" />
        </mxCell>
        <mxCell id="HCGs_4Ey4VlUpitF9Jwi-18" value="F0/1" style="text;html=1;align=center;verticalAlign=middle;resizable=0;points=[];autosize=1;strokeColor=none;fillColor=none;" vertex="1" parent="1">
          <mxGeometry x="448" y="270" width="50" height="30" as="geometry" />
        </mxCell>
        <mxCell id="HCGs_4Ey4VlUpitF9Jwi-19" value="F0/1" style="text;html=1;align=center;verticalAlign=middle;resizable=0;points=[];autosize=1;strokeColor=none;fillColor=none;" vertex="1" parent="1">
          <mxGeometry x="368" y="270" width="50" height="30" as="geometry" />
        </mxCell>
        <mxCell id="HCGs_4Ey4VlUpitF9Jwi-20" value="F0/1" style="text;html=1;align=center;verticalAlign=middle;resizable=0;points=[];autosize=1;strokeColor=none;fillColor=none;" vertex="1" parent="1">
          <mxGeometry x="293" y="270" width="50" height="30" as="geometry" />
        </mxCell>
        <mxCell id="HCGs_4Ey4VlUpitF9Jwi-21" value="F0/1" style="text;html=1;align=center;verticalAlign=middle;resizable=0;points=[];autosize=1;strokeColor=none;fillColor=none;" vertex="1" parent="1">
          <mxGeometry x="790" y="270" width="50" height="30" as="geometry" />
        </mxCell>
        <mxCell id="HCGs_4Ey4VlUpitF9Jwi-22" value="F0/1" style="text;html=1;align=center;verticalAlign=middle;resizable=0;points=[];autosize=1;strokeColor=none;fillColor=none;" vertex="1" parent="1">
          <mxGeometry x="710" y="410" width="50" height="30" as="geometry" />
        </mxCell>
        <mxCell id="HCGs_4Ey4VlUpitF9Jwi-23" value="F0/1" style="text;html=1;align=center;verticalAlign=middle;resizable=0;points=[];autosize=1;strokeColor=none;fillColor=none;" vertex="1" parent="1">
          <mxGeometry x="628" y="410" width="50" height="30" as="geometry" />
        </mxCell>
        <mxCell id="HCGs_4Ey4VlUpitF9Jwi-24" value="F0/1" style="text;html=1;align=center;verticalAlign=middle;resizable=0;points=[];autosize=1;strokeColor=none;fillColor=none;" vertex="1" parent="1">
          <mxGeometry x="548" y="410" width="50" height="30" as="geometry" />
        </mxCell>
        <mxCell id="HCGs_4Ey4VlUpitF9Jwi-25" value="F0/1" style="text;html=1;align=center;verticalAlign=middle;resizable=0;points=[];autosize=1;strokeColor=none;fillColor=none;" vertex="1" parent="1">
          <mxGeometry x="448" y="410" width="50" height="30" as="geometry" />
        </mxCell>
        <mxCell id="HCGs_4Ey4VlUpitF9Jwi-26" value="F0/1" style="text;html=1;align=center;verticalAlign=middle;resizable=0;points=[];autosize=1;strokeColor=none;fillColor=none;" vertex="1" parent="1">
          <mxGeometry x="368" y="410" width="50" height="30" as="geometry" />
        </mxCell>
        <mxCell id="HCGs_4Ey4VlUpitF9Jwi-27" value="F0/1" style="text;html=1;align=center;verticalAlign=middle;resizable=0;points=[];autosize=1;strokeColor=none;fillColor=none;" vertex="1" parent="1">
          <mxGeometry x="790" y="410" width="50" height="30" as="geometry" />
        </mxCell>
        <mxCell id="HCGs_4Ey4VlUpitF9Jwi-28" value="F0/4" style="text;html=1;align=center;verticalAlign=middle;resizable=0;points=[];autosize=1;strokeColor=none;fillColor=none;" vertex="1" parent="1">
          <mxGeometry x="215" y="220" width="50" height="30" as="geometry" />
        </mxCell>
        <mxCell id="HCGs_4Ey4VlUpitF9Jwi-29" value="F0/6" style="text;html=1;align=center;verticalAlign=middle;resizable=0;points=[];autosize=1;strokeColor=none;fillColor=none;" vertex="1" parent="1">
          <mxGeometry x="368" y="230" width="50" height="30" as="geometry" />
        </mxCell>
        <mxCell id="HCGs_4Ey4VlUpitF9Jwi-30" value="F0/5" style="text;html=1;align=center;verticalAlign=middle;resizable=0;points=[];autosize=1;strokeColor=none;fillColor=none;" vertex="1" parent="1">
          <mxGeometry x="275" y="230" width="50" height="30" as="geometry" />
        </mxCell>
        <mxCell id="HCGs_4Ey4VlUpitF9Jwi-31" value="F0/3" style="text;html=1;align=center;verticalAlign=middle;resizable=0;points=[];autosize=1;strokeColor=none;fillColor=none;" vertex="1" parent="1">
          <mxGeometry x="109" y="220" width="50" height="30" as="geometry" />
        </mxCell>
        <mxCell id="HCGs_4Ey4VlUpitF9Jwi-32" value="F0/9" style="text;html=1;align=center;verticalAlign=middle;resizable=0;points=[];autosize=1;strokeColor=none;fillColor=none;" vertex="1" parent="1">
          <mxGeometry x="628" y="230" width="50" height="30" as="geometry" />
        </mxCell>
        <mxCell id="HCGs_4Ey4VlUpitF9Jwi-33" value="F0/7" style="text;html=1;align=center;verticalAlign=middle;resizable=0;points=[];autosize=1;strokeColor=none;fillColor=none;" vertex="1" parent="1">
          <mxGeometry x="448" y="230" width="50" height="30" as="geometry" />
        </mxCell>
        <mxCell id="HCGs_4Ey4VlUpitF9Jwi-34" value="F0/1" style="text;html=1;align=center;verticalAlign=middle;resizable=0;points=[];autosize=1;strokeColor=none;fillColor=none;" vertex="1" parent="1">
          <mxGeometry x="328" y="150" width="50" height="30" as="geometry" />
        </mxCell>
        <mxCell id="HCGs_4Ey4VlUpitF9Jwi-35" value="F0/8" style="text;html=1;align=center;verticalAlign=middle;resizable=0;points=[];autosize=1;strokeColor=none;fillColor=none;" vertex="1" parent="1">
          <mxGeometry x="543" y="230" width="50" height="30" as="geometry" />
        </mxCell>
        <mxCell id="HCGs_4Ey4VlUpitF9Jwi-36" value="F0/15" style="text;html=1;align=center;verticalAlign=middle;resizable=0;points=[];autosize=1;strokeColor=none;fillColor=none;" vertex="1" parent="1">
          <mxGeometry x="293" y="380" width="50" height="30" as="geometry" />
        </mxCell>
        <mxCell id="HCGs_4Ey4VlUpitF9Jwi-37" value="F0/16" style="text;html=1;align=center;verticalAlign=middle;resizable=0;points=[];autosize=1;strokeColor=none;fillColor=none;" vertex="1" parent="1">
          <mxGeometry x="368" y="380" width="50" height="30" as="geometry" />
        </mxCell>
        <mxCell id="HCGs_4Ey4VlUpitF9Jwi-38" value="F0/17" style="text;html=1;align=center;verticalAlign=middle;resizable=0;points=[];autosize=1;strokeColor=none;fillColor=none;" vertex="1" parent="1">
          <mxGeometry x="440" y="380" width="50" height="30" as="geometry" />
        </mxCell>
        <mxCell id="HCGs_4Ey4VlUpitF9Jwi-39" value="F0/18" style="text;html=1;align=center;verticalAlign=middle;resizable=0;points=[];autosize=1;strokeColor=none;fillColor=none;" vertex="1" parent="1">
          <mxGeometry x="548" y="380" width="50" height="30" as="geometry" />
        </mxCell>
        <mxCell id="HCGs_4Ey4VlUpitF9Jwi-40" value="F0/19" style="text;html=1;align=center;verticalAlign=middle;resizable=0;points=[];autosize=1;strokeColor=none;fillColor=none;" vertex="1" parent="1">
          <mxGeometry x="628" y="380" width="50" height="30" as="geometry" />
        </mxCell>
        <mxCell id="HCGs_4Ey4VlUpitF9Jwi-41" value="F0/20" style="text;html=1;align=center;verticalAlign=middle;resizable=0;points=[];autosize=1;strokeColor=none;fillColor=none;" vertex="1" parent="1">
          <mxGeometry x="705" y="380" width="50" height="30" as="geometry" />
        </mxCell>
        <mxCell id="HCGs_4Ey4VlUpitF9Jwi-42" value="F0/21" style="text;html=1;align=center;verticalAlign=middle;resizable=0;points=[];autosize=1;strokeColor=none;fillColor=none;" vertex="1" parent="1">
          <mxGeometry x="790" y="380" width="50" height="30" as="geometry" />
        </mxCell>
        <mxCell id="HCGs_4Ey4VlUpitF9Jwi-43" value="F0/11" style="text;html=1;align=center;verticalAlign=middle;resizable=0;points=[];autosize=1;strokeColor=none;fillColor=none;" vertex="1" parent="1">
          <mxGeometry x="785" y="230" width="50" height="30" as="geometry" />
        </mxCell>
        <mxCell id="HCGs_4Ey4VlUpitF9Jwi-44" value="F0/10" style="text;html=1;align=center;verticalAlign=middle;resizable=0;points=[];autosize=1;strokeColor=none;fillColor=none;" vertex="1" parent="1">
          <mxGeometry x="710" y="230" width="50" height="30" as="geometry" />
        </mxCell>
        <mxCell id="HCGs_4Ey4VlUpitF9Jwi-45" value="F0/12" style="text;html=1;align=center;verticalAlign=middle;resizable=0;points=[];autosize=1;strokeColor=none;fillColor=none;" vertex="1" parent="1">
          <mxGeometry x="28" y="380" width="50" height="30" as="geometry" />
        </mxCell>
        <mxCell id="HCGs_4Ey4VlUpitF9Jwi-46" value="F0/13" style="text;html=1;align=center;verticalAlign=middle;resizable=0;points=[];autosize=1;strokeColor=none;fillColor=none;" vertex="1" parent="1">
          <mxGeometry x="120" y="380" width="50" height="30" as="geometry" />
        </mxCell>
        <mxCell id="HCGs_4Ey4VlUpitF9Jwi-47" value="F0/14" style="text;html=1;align=center;verticalAlign=middle;resizable=0;points=[];autosize=1;strokeColor=none;fillColor=none;" vertex="1" parent="1">
          <mxGeometry x="215" y="380" width="50" height="30" as="geometry" />
        </mxCell>
      </root>
    </mxGraphModel>
  </diagram>
</mxfile>
